<svg width="13" height="15" viewBox="0 0 13 15" fill="none" xmlns="http://www.w3.org/2000/svg">
<path d="M4.92905 12.7097C5.28951 12.6335 7.48594 12.6335 7.8464 12.7097C8.15454 12.7809 8.48777 12.9472 8.48777 13.3103C8.46985 13.656 8.26705 13.9624 7.98685 14.157C7.62353 14.4403 7.19714 14.6196 6.75141 14.6843C6.50489 14.7162 6.26268 14.717 6.02476 14.6843C5.57831 14.6196 5.15192 14.4403 4.78931 14.1563C4.5084 13.9624 4.3056 13.656 4.28768 13.3103C4.28768 12.9472 4.62091 12.7809 4.92905 12.7097ZM6.43029 0.287659C7.93017 0.287659 9.4623 0.999341 10.3724 2.18015C10.9629 2.94049 11.2338 3.7001 11.2338 4.88092V5.1881C11.2338 6.09368 11.4731 6.62744 11.9998 7.24254C12.399 7.69569 12.5265 8.27738 12.5265 8.90846C12.5265 9.53881 12.3194 10.1372 11.9045 10.623C11.3613 11.2055 10.5953 11.5773 9.81344 11.6419C8.68047 11.7385 7.54678 11.8198 6.39804 11.8198C5.24859 11.8198 4.11562 11.7712 2.98265 11.6419C2.20011 11.5773 1.43404 11.2055 0.891565 10.623C0.476644 10.1372 0.268826 9.53881 0.268826 8.90846C0.268826 8.27738 0.3971 7.69569 0.795539 7.24254C1.33873 6.62744 1.56232 6.09368 1.56232 5.1881V4.88092C1.56232 3.66815 1.86473 2.87513 2.48747 2.09882C3.41334 0.966662 4.89745 0.287659 6.3658 0.287659H6.43029Z" fill="#787878"/>
</svg>
